<svg width="24" height="24" viewBox="0 0 24 24" fill="none" xmlns="http://www.w3.org/2000/svg">
<g clip-path="url(#clip0_1323_402)">
<path d="M12 6.5625H22.6875C23.6383 8.43365 24.0817 10.5215 23.9735 12.6175C23.8652 14.7136 23.2091 16.7446 22.0706 18.5079C20.9321 20.2711 19.3511 21.7049 17.4852 22.6662C15.6194 23.6274 13.5341 24.0825 11.4375 23.9859" fill="#FFCC44"/>
<path d="M16.7344 14.7188L11.4375 23.9859C9.33318 23.8901 7.29114 23.2421 5.51666 22.1069C3.74218 20.9718 2.29777 19.3895 1.32864 17.5192C0.359502 15.6488 -0.100216 13.5563 -0.00430812 11.452C0.0915998 9.34768 0.739754 7.30568 1.87501 5.53125" fill="#0F9D58"/>
<path d="M12 6.5625H22.6875C21.7301 4.67599 20.291 3.07611 18.5161 1.925C16.7411 0.773894 14.6934 0.112474 12.5805 0.00777875C10.4675 -0.0969166 8.36448 0.358834 6.48443 1.32884C4.60438 2.29885 3.01418 3.74863 1.875 5.53125L7.26562 14.7188" fill="#DB4437"/>
<path d="M12 16.9219C14.7183 16.9219 16.9219 14.7183 16.9219 12C16.9219 9.28172 14.7183 7.07812 12 7.07812C9.28172 7.07812 7.07812 9.28172 7.07812 12C7.07812 14.7183 9.28172 16.9219 12 16.9219Z" fill="#4285F4" stroke="#F1F1F1" stroke-width="2"/>
</g>
<defs>
<clipPath id="clip0_1323_402">
<rect width="24" height="24" fill="white"/>
</clipPath>
</defs>
</svg>
